<svg width="1024" height="1024" viewBox="0 0 1024 1024" fill="none" xmlns="http://www.w3.org/2000/svg">
<rect width="1024" height="1024" fill="#F5F5F5"/>
<path d="M693.248 359.424L540.672 512L692.224 663.552C700.416 671.744 700.416 684.032 692.224 692.224C688.128 696.32 683.008 698.368 677.888 698.368C672.768 698.368 667.648 696.32 663.552 692.224L512 540.672L359.424 693.248C355.328 697.344 350.208 699.392 345.088 699.392C339.968 699.392 334.848 697.344 330.752 693.248C322.56 685.056 322.56 672.768 330.752 664.576L483.328 512L330.752 359.424C322.56 351.232 322.56 338.944 330.752 330.752C338.944 322.56 351.232 322.56 359.424 330.752L512 483.328L664.576 330.752C672.768 322.56 685.056 322.56 693.248 330.752C701.44 338.944 701.44 351.232 693.248 359.424ZM972.8 512C972.8 765.952 765.952 972.8 512 972.8C258.048 972.8 51.2 765.952 51.2 512C51.2 258.048 258.048 51.2 512 51.2C765.952 51.2 972.8 258.048 972.8 512ZM931.84 512C931.84 280.576 743.424 92.16 512 92.16C280.576 92.16 92.16 280.576 92.16 512C92.16 743.424 280.576 931.84 512 931.84C743.424 931.84 931.84 743.424 931.84 512Z" fill="#F30505" fill-opacity="0.81"/>
</svg>
