<svg width="922" height="922" viewBox="0 0 922 922" fill="none" xmlns="http://www.w3.org/2000/svg">
<path d="M642.248 308.424L489.672 461L641.224 612.552C649.416 620.744 649.416 633.032 641.224 641.224C637.128 645.32 632.008 647.368 626.888 647.368C621.768 647.368 616.648 645.32 612.552 641.224L461 489.672L308.424 642.248C304.328 646.344 299.208 648.392 294.088 648.392C288.968 648.392 283.848 646.344 279.752 642.248C271.56 634.056 271.56 621.768 279.752 613.576L432.328 461L279.752 308.424C271.56 300.232 271.56 287.944 279.752 279.752C287.944 271.56 300.232 271.56 308.424 279.752L461 432.328L613.576 279.752C621.768 271.56 634.056 271.56 642.248 279.752C650.44 287.944 650.44 300.232 642.248 308.424ZM921.8 461C921.8 714.952 714.952 921.8 461 921.8C207.048 921.8 0.200012 714.952 0.200012 461C0.200012 207.048 207.048 0.200012 461 0.200012C714.952 0.200012 921.8 207.048 921.8 461ZM880.84 461C880.84 229.576 692.424 41.16 461 41.16C229.576 41.16 41.16 229.576 41.16 461C41.16 692.424 229.576 880.84 461 880.84C692.424 880.84 880.84 692.424 880.84 461Z" fill="#888888" fill-opacity="0.81"/>
</svg>
